<svg xmlns="http://www.w3.org/2000/svg" viewBox="0 0 800 600" width="800" height="600" role="img"><rect width="800" height="600" fill="#F0F3F7"/><line x1="400" y1="300" x2="613" y2="303" stroke="#CFD8E4" stroke-width="5"/><line x1="400" y1="300" x2="556" y2="431" stroke="#CFD8E4" stroke-width="5"/><line x1="400" y1="300" x2="353" y2="470" stroke="#CFD8E4" stroke-width="5"/><line x1="400" y1="300" x2="190" y2="374" stroke="#CFD8E4" stroke-width="5"/><line x1="400" y1="300" x2="213" y2="241" stroke="#CFD8E4" stroke-width="5"/><line x1="400" y1="300" x2="331" y2="124" stroke="#CFD8E4" stroke-width="5"/><line x1="400" y1="300" x2="513" y2="183" stroke="#CFD8E4" stroke-width="5"/><line x1="613" y1="303" x2="556" y2="431" stroke="#CFD8E4" stroke-width="4" opacity=".7"/><line x1="556" y1="431" x2="353" y2="470" stroke="#CFD8E4" stroke-width="4" opacity=".7"/><line x1="353" y1="470" x2="190" y2="374" stroke="#CFD8E4" stroke-width="4" opacity=".7"/><line x1="190" y1="374" x2="213" y2="241" stroke="#CFD8E4" stroke-width="4" opacity=".7"/><line x1="213" y1="241" x2="331" y2="124" stroke="#CFD8E4" stroke-width="4" opacity=".7"/><line x1="331" y1="124" x2="513" y2="183" stroke="#CFD8E4" stroke-width="4" opacity=".7"/><line x1="513" y1="183" x2="613" y2="303" stroke="#CFD8E4" stroke-width="4" opacity=".7"/><circle cx="400" cy="300" r="30" fill="#2C4A6E" fill-opacity=".9"/><circle cx="613" cy="303" r="20" fill="#2C4A6E" fill-opacity=".9"/><circle cx="556" cy="431" r="20" fill="#2C4A6E" fill-opacity=".9"/><circle cx="353" cy="470" r="20" fill="#2C4A6E" fill-opacity=".9"/><circle cx="190" cy="374" r="20" fill="#2C4A6E" fill-opacity=".9"/><circle cx="213" cy="241" r="20" fill="#2C4A6E" fill-opacity=".9"/><circle cx="331" cy="124" r="20" fill="#2C4A6E" fill-opacity=".9"/><circle cx="513" cy="183" r="20" fill="#2C4A6E" fill-opacity=".9"/><circle cx="353" cy="470" r="30" fill="#1E3550"/><circle cx="353" cy="470" r="46" fill="none" stroke="#1E3550" stroke-width="5" opacity=".55"/></svg>